<svg width="37" height="37" viewBox="0 0 37 37" fill="none" xmlns="http://www.w3.org/2000/svg">
<circle cx="18.5" cy="18.5" r="17.5" fill="#00792F"/>
<g style="mix-blend-mode:luminosity">
<path d="M18.4588 10.8181C11.7909 7.54662 4.9748 11.4123 2.49116 13.7541C1.98601 12.1812 5.70382 1.48602 18.4588 1.27631C28.6628 1.10854 33.3186 8.33657 34.371 11.9716C31.8452 12.9502 25.1268 14.0896 18.4588 10.8181Z" fill="#005D15"/>
</g>
<circle cx="18.6362" cy="18.6362" r="17.3217" stroke="#139649"/>
<path d="M18.28 14.1647L18.28 31.8126M18.28 30.3419L21.2213 30.3419M18.28 24.4593L21.2213 24.4593M18.28 5.34082C18.8617 5.34082 19.4304 5.51333 19.9141 5.83652C20.3978 6.15972 20.7748 6.61908 20.9974 7.15654C21.22 7.69399 21.2783 8.28539 21.1648 8.85595C21.0513 9.42651 20.7712 9.9506 20.3598 10.3619C19.9485 10.7733 19.4244 11.0534 18.8538 11.1669C18.2832 11.2804 17.6919 11.2222 17.1544 10.9995C16.6169 10.7769 16.1576 10.3999 15.8344 9.91623C15.5112 9.43253 15.3387 8.86386 15.3387 8.28213C15.3387 7.50204 15.6486 6.75391 16.2002 6.20231C16.7518 5.65071 17.4999 5.34082 18.28 5.34082ZM12.3974 14.1647C12.3974 14.7465 12.5699 15.3151 12.8931 15.7988C13.2163 16.2825 13.6756 16.6595 14.2131 16.8822C14.7505 17.1048 15.3419 17.163 15.9125 17.0495C16.4831 16.936 17.0071 16.6559 17.4185 16.2446C17.8298 15.8332 18.11 15.3091 18.2235 14.7386C18.337 14.168 18.2787 13.5766 18.0561 13.0392C17.8335 12.5017 17.4565 12.0423 16.9728 11.7191C16.4891 11.3959 15.9204 11.2234 15.3387 11.2234C14.5586 11.2234 13.8105 11.5333 13.2589 12.0849C12.7073 12.6365 12.3974 13.3847 12.3974 14.1647ZM21.2213 11.2234C20.6396 11.2234 20.0709 11.3959 19.5872 11.7191C19.1035 12.0423 18.7265 12.5017 18.5039 13.0392C18.2813 13.5766 18.223 14.168 18.3365 14.7386C18.45 15.3091 18.7301 15.8332 19.1415 16.2446C19.5528 16.6559 20.0769 16.936 20.6475 17.0495C21.218 17.163 21.8094 17.1048 22.3469 16.8822C22.8843 16.6595 23.3437 16.2825 23.6669 15.7988C23.9901 15.3151 24.1626 14.7465 24.1626 14.1647C24.1626 13.3847 23.8527 12.6365 23.3011 12.0849C22.7495 11.5333 22.0014 11.2234 21.2213 11.2234Z" stroke="white" stroke-opacity="0.2" stroke-width="2" stroke-linecap="round" stroke-linejoin="round"/>
<path d="M18.9919 14.5236L18.9919 32.1715M18.9919 30.7008L21.9332 30.7008M18.9919 24.8182L21.9332 24.8182M18.9919 5.69971C19.5736 5.69971 20.1423 5.87221 20.626 6.19541C21.1097 6.5186 21.4867 6.97797 21.7093 7.51542C21.9319 8.05288 21.9902 8.64428 21.8767 9.21483C21.7632 9.78539 21.4831 10.3095 21.0717 10.7208C20.6604 11.1322 20.1363 11.4123 19.5657 11.5258C18.9952 11.6393 18.4038 11.581 17.8663 11.3584C17.3289 11.1358 16.8695 10.7588 16.5463 10.2751C16.2231 9.79142 16.0506 9.22275 16.0506 8.64101C16.0506 7.86093 16.3605 7.1128 16.9121 6.5612C17.4637 6.00959 18.2118 5.69971 18.9919 5.69971ZM13.1093 14.5236C13.1093 15.1054 13.2818 15.674 13.605 16.1577C13.9282 16.6414 14.3876 17.0184 14.925 17.241C15.4625 17.4637 16.0539 17.5219 16.6244 17.4084C17.195 17.2949 17.7191 17.0148 18.1304 16.6034C18.5418 16.1921 18.8219 15.668 18.9354 15.0974C19.0489 14.5269 18.9906 13.9355 18.768 13.398C18.5454 12.8606 18.1684 12.4012 17.6847 12.078C17.201 11.7548 16.6323 11.5823 16.0506 11.5823C15.2705 11.5823 14.5224 11.8922 13.9708 12.4438C13.4192 12.9954 13.1093 13.7435 13.1093 14.5236ZM21.9332 11.5823C21.3515 11.5823 20.7828 11.7548 20.2991 12.078C19.8154 12.4012 19.4384 12.8606 19.2158 13.398C18.9932 13.9355 18.9349 14.5269 19.0484 15.0974C19.1619 15.668 19.442 16.1921 19.8534 16.6034C20.2647 17.0148 20.7888 17.2949 21.3594 17.4084C21.9299 17.5219 22.5213 17.4637 23.0588 17.241C23.5962 17.0184 24.0556 16.6414 24.3788 16.1577C24.702 15.674 24.8745 15.1054 24.8745 14.5236C24.8745 13.7435 24.5646 12.9954 24.013 12.4438C23.4614 11.8922 22.7133 11.5823 21.9332 11.5823Z" stroke="white" stroke-width="2" stroke-linecap="round" stroke-linejoin="round"/>
</svg>
